<svg xmlns="http://www.w3.org/2000/svg" viewBox="0 0 256 256" width="256" height="256"><path d="M59.65 166.36a32.27 32.27 0 0 0-7.61.86.49.49 0 0 1 0 .11.4.4 0 0 0 0 .13c0 .28.26.59.77 1a13.61 13.61 0 0 0 2 1c.79.33 1.68.66 2.63 1s1.89.59 2.78.84 1.68.44 2.38.59a10.54 10.54 0 0 0 1.45.21c.59 0 1.31 0 2.14-.09a15.21 15.21 0 0 0 2.49-.41 12.62 12.62 0 0 0 2.32-.9 4.29 4.29 0 0 0 1.68-1.45 27.74 27.74 0 0 0-6.33-2.18 30.9 30.9 0 0 0-6.7-.71z"/><path d="M128 1.66a126 126 0 1 0 126 126 126 126 0 0 0-126-126zm82.17 69.53v.31a6.71 6.71 0 0 1-.1 1.38c-.13.66-.19 1.36-.32 2.09s-.22 1.41-.35 2.07-.18 1.08-.23 1.33a9.85 9.85 0 0 0-.9 1.81c-.23.64-.44 1.28-.63 1.95s-.38 1.32-.58 2a14.27 14.27 0 0 1-.72 1.92 30.53 30.53 0 0 1-1.66 3 21 21 0 0 0-1.58 3l-19.78 27.48a3.14 3.14 0 0 1-.23.54 1.45 1.45 0 0 1-.27.28l-.31.28a3.55 3.55 0 0 0-.41.49l-1.64 2.24c-.64.89-1.33 1.84-2 2.86s-1.45 2.1-2.17 3.2-1.38 2.19-2 3.24a25.92 25.92 0 0 0-1.38 2.94 6.94 6.94 0 0 0-.52 2.31c0 .29-.22.52-.21.72s.19.43.19.69c-.16 0-.26.14-.26.37s.1.38.26.41v10.08a2.64 2.64 0 0 1-.24 1c-.16.37-.2.74-.36 1.16s-.49.8-.6 1.2-.44.78-.44 1.11v1.65a.39.39 0 0 1 0 .42c-.15.23-.21.5-.39.78s-.55.55-.71.8-.51.38-.51.41v.4c0 .08.69.21.78.41s.86.33.86.41v2.81a23.05 23.05 0 0 1-.61 3.48c-.18 1.17-.55 2.32-.76 3.47s-.48 2.32-.67 3.49a22.52 22.52 0 0 0-.32 3.48 61.77 61.77 0 0 0 .29 6.24 42.27 42.27 0 0 0 1.08 6.1 31.3 31.3 0 0 0 2.11 5.71 23.11 23.11 0 0 0 3.38 5.17 5.41 5.41 0 0 1-1.25.82 9.16 9.16 0 0 1-1.66.68 16.09 16.09 0 0 1-1.71.46 4.83 4.83 0 0 1-1.43.08l-.46-.1c-.29-.06-.62-.15-1-.25l-1.18-.26c-.41-.1-.72-.16-1-.21a6.07 6.07 0 0 1-.74-.15 4.16 4.16 0 0 1-.74-.28 2.81 2.81 0 0 1-.61-.48 1.38 1.38 0 0 1-.32-.7 29.78 29.78 0 0 0 .11-4c-.05-1.4-.15-2.81-.28-4.22s-.33-2.83-.51-4.24-.38-2.75-.52-4a2.6 2.6 0 0 1-.2-.62 1.45 1.45 0 0 0-.25-.59c.07-1.1.1-2.3.13-3.62a38.35 38.35 0 0 0-.13-4 25.76 25.76 0 0 0-.59-3.95 11.14 11.14 0 0 0-1.4-3.38 3.33 3.33 0 0 0-1.44 1.79 20.87 20.87 0 0 0-.77 2.69c-.22 1-.2 1.91-.43 2.86s-.92 1.73-.92 2.32V184c0 2.81-.22 5.55-.1 8.21s.2 5.38.56 8.14a2.15 2.15 0 0 0 .41.33c.26.18.51.38.8.59a5.28 5.28 0 0 1 .79.69.93.93 0 0 1 .34.62c0 .23-.27.5-.81.79a13.06 13.06 0 0 1-1.83.86 21.17 21.17 0 0 1-2 .82 12.28 12.28 0 0 1-1.27.41h-.18l-4.71-2.56a.47.47 0 0 1-.22-.48v-.59a20.82 20.82 0 0 1 0-3 21.71 21.71 0 0 0 .11-3 26.12 26.12 0 0 0-.31-3.76c-.16-1.23-.38-2.47-.58-3.68s-.41-2.47-.59-3.72a30.28 30.28 0 0 1-.25-3.86c0-1.22 0-2.32.11-3.29s.2-1.89.35-2.77.34-1.83.52-2.78.41-2 .66-3.17a1.4 1.4 0 0 0-.05-.71 4.44 4.44 0 0 1-.11-.71 7.82 7.82 0 0 0-1.86.22c-.61.14-1.22.31-1.84.51l-1.91.6a14.29 14.29 0 0 1-1.89.51l-1.35.2c-.37.05-.72.1-1.06.13s-.66-.12-1-.1-.68-.18-1.06-.18h-1.8c-1.79 0-3.54.11-5.21 0s-3.4-.15-5.21-.15c-.77 0-1.58.06-2.42.1a4 4 0 0 0-2.33.84v5.16c0 1.69-.09 3.37-.16 5s-.2 3.37-.26 5.06-.15 3.41-.15 5.15v5.04c0 .54.66 1.1 1.12 1.66s.94 1.12 1.39 1.69a16.68 16.68 0 0 1 1.18 1.74 3.39 3.39 0 0 1 .52 1.78v.38a9.27 9.27 0 0 1-4 .39c.08.48 0 .72-.23.79a3.37 3.37 0 0 1-.7.06h-2a10.13 10.13 0 0 1-2.24-.23 4.28 4.28 0 0 1-1.8-.84 2.2 2.2 0 0 1-.76-1.84 7 7 0 0 1 .13-1.28c.1-.43.2-.86.31-1.29s.23-.85.32-1.29a7 7 0 0 0 .13-1.38 24.64 24.64 0 0 0-.27-3.8c-.18-1.22-.41-2.4-.67-3.57s-.53-2.62-.8-3.79a26 26 0 0 1-.71-3.93h-.43c-.21 0-.38.75-.51.91s-.26.48-.39.68-.23.41-.31.53c-.5.74-1 1.53-1.55 2.25s-1 1.49-1.45 2.25a16.63 16.63 0 0 0-1.06 2.41 8.39 8.39 0 0 0-.43 2.67 4.18 4.18 0 0 0 .33 1.61 16.1 16.1 0 0 0 .72 1.5c.26.44.51.83.72 1.15a1.7 1.7 0 0 1 .33.57.82.82 0 0 1-.41.72 3 3 0 0 1-1 .46 10.26 10.26 0 0 1-1.32.27c-.46 0-.9.1-1.33.1h-1.24a12.45 12.45 0 0 1-1.71-.13 2.12 2.12 0 0 1-1.06-.39 2.19 2.19 0 0 1-.69-.87 9.33 9.33 0 0 1-.55-1.6c-.16-.54-.32-1.07-.51-1.6a5 5 0 0 1-.27-1.64 3.29 3.29 0 0 1 .41-1.48c.28-.51.59-1.05.93-1.58s.71-1 1-1.56a6.87 6.87 0 0 0 .81-1.43c.84-1.94 1.64-3.9 2.43-5.85s1.61-3.9 2.45-5.85a4 4 0 0 1 .46-.74c.18-.23.36-.48.53-.71a3.2 3.2 0 0 0 .42-.74 1.64 1.64 0 0 0 .18-.82c0-.36-.11-.58-.32-.62a3.07 3.07 0 0 0-.64-.09 1.89 1.89 0 0 0-.38.05h-.25l-8.91 2.41a2.73 2.73 0 0 1-1.29.53l-1.76.39a6.66 6.66 0 0 0-1.56.58 1.11 1.11 0 0 0-.69 1.05 1.47 1.47 0 0 0 .26.89 2.63 2.63 0 0 0 .64.65l.82.55a2.87 2.87 0 0 1 .74.6l-.39.43-1.27-.84a14.19 14.19 0 0 0-1.4-.82 9.53 9.53 0 0 0-1.49-.61 4.84 4.84 0 0 0-1.5-.23 14.71 14.71 0 0 0-3.76.51c-1.28.33-2.6.71-3.93 1.12s-2.68.81-4.06 1.13a16.82 16.82 0 0 1-4.17.51 21.62 21.62 0 0 1-3.44-.39c-1.48-.25-3.09-.62-4.84-1.1s-3.55-1.07-5.38-1.74a38.05 38.05 0 0 1-5-2.24A15.58 15.58 0 0 1 47 172a4.13 4.13 0 0 1-1.43-2.94 4.42 4.42 0 0 1 1.11-3.24 6.3 6.3 0 0 1 2.73-1.63 14 14 0 0 1 3.45-.15c1.22 0 2.34.33 3.32.33h3.95a2.55 2.55 0 0 1 1.26-.24c.69.08 1.47 0 2.32.14s1.71.19 2.53.32 1.5.18 2 .26a7.8 7.8 0 0 1 1.92.53c.59.28 1.18.55 1.77.85s1.19.52 1.81.75a6.19 6.19 0 0 0 2 .32 8.71 8.71 0 0 0 3.94-1.05 31.55 31.55 0 0 0 4.1-2.53c1.34-1 2.64-2 3.86-3.09s2.3-2 3.24-2.7a16.38 16.38 0 0 1 1.84-1.23c.62-.35 1.23-.71 1.84-1.09a17 17 0 0 0 1.71-1.25 8.19 8.19 0 0 0 1.48-1.69 36.24 36.24 0 0 0 2.59-4.44 31.16 31.16 0 0 1 2.68-4.42 7.27 7.27 0 0 1 1.3-1.3 13.68 13.68 0 0 1 1.53-1c.52-.3 1.07-.59 1.61-.87a17 17 0 0 0 1.61-.91 43.8 43.8 0 0 0 3.56-2.61c1.17-.94 2.31-1.91 3.42-2.89s2.24-2 3.34-3 2.23-1.94 3.42-2.84a20.81 20.81 0 0 1 3.74-2.19c1.32-.59 2.62-1.21 3.9-1.84q1.26-.57 2.46-1.26c.81-.45 1.63-.89 2.45-1.3a25.14 25.14 0 0 1 2.55-1.14 12.26 12.26 0 0 1 2.65-.73l22.2-3.24a10.91 10.91 0 0 0 3.47-1.12 20.18 20.18 0 0 0 3.33-2.17 31 31 0 0 0 3.16-2.86c1-1 2-2.14 2.89-3.22s1.81-2.15 2.65-3.19 1.59-2 2.3-2.78l7.64-8.9a2.23 2.23 0 0 0 .33-.27 6.75 6.75 0 0 0 .52-.54 6.19 6.19 0 0 0 .51-.53c.17-.14.25-.24.28-.26l2-3.24.25-.16.38-.23c.13-.08.26-.17.38-.23a.81.81 0 0 0 .21-.2 3 3 0 0 0 .41-.39c.2-.22.31-.33.36-.4.38-.49.79-1.05 1.23-1.69s.92-1.28 1.37-2 .89-1.31 1.3-1.93.72-1.22 1-1.71a12.61 12.61 0 0 0 .85-2l.69-2.1c.22-.73.5-1.45.76-2.17s1-1.47 1-2.19v-6a5.12 5.12 0 0 0-1.08-3.05 11.71 11.71 0 0 0-2.61-2.6 13.07 13.07 0 0 0-3.33-1.79 9.11 9.11 0 0 0-3.18-.68 24.25 24.25 0 0 0-5.77.68 12.22 12.22 0 0 0-5.08 2.61 12.62 12.62 0 0 0-1.43 1.42c-.51.59-1 1.21-1.59 1.85l-1.74 2a22.56 22.56 0 0 1-1.83 1.83 11.07 11.07 0 0 1-1.81 1.29 3.41 3.41 0 0 1-1.75.51 1.66 1.66 0 0 1-1.66-1.59v-.43c0-.08.06-.25.11-.48s.11-.49.16-.75.11-.53.14-.77a2.52 2.52 0 0 0 .07-.46 5.19 5.19 0 0 0-.24-1.66 13 13 0 0 0-.59-1.35c-.23-.41-.41-.81-.59-1.18a3 3 0 0 1-.25-1.24 1.08 1.08 0 0 0 .84-.26 2.73 2.73 0 0 0 .44-.62c.14-.25.28-.5.43-.74a1.71 1.71 0 0 1 .79-.6 1.35 1.35 0 0 1 .54 0c.23 0 .53-.11.86-.11s.64-.1.9-.1h.51a1.08 1.08 0 0 0 .94-.36 3.44 3.44 0 0 1 .7-.66.58.58 0 0 1 .23 0h.15a.9.9 0 0 1 .25.37 1.6 1.6 0 0 0 .18.42.45.45 0 0 1 .39-.38c.1-.07.32-.18.63-.36l1.1-.64 1.35-.81 1.33-.78c.42-.25.79-.46 1.08-.65a3.32 3.32 0 0 0 .56-.39 18.64 18.64 0 0 1 2.09-1.25 7.55 7.55 0 0 1 1.76-.62 9.34 9.34 0 0 1 1.9-.22h6.4a5.8 5.8 0 0 0 1.46.53c.51.13 1 .23 1.51.31l1.55.31a9 9 0 0 1 1.52.5 14.54 14.54 0 0 1 4.52 3 16.86 16.86 0 0 1 3.11 4.22 18.93 18.93 0 0 1 1.71 5 23.81 23.81 0 0 1 .48 5.4v1.52c0 .27-.02.52-.02.79z"/></svg>