<svg xmlns="http://www.w3.org/2000/svg" viewBox="0 0 256 256" width="256" height="256"><path d="M132.33 151.1c-.28 0-.41.2-.41.59a.11.11 0 0 0-.08 0 .43.43 0 0 0-.48.49q0 .6.48.6c.28 0 .41-.2.41-.6h.08c.35 0 .51-.16.51-.49s-.16-.59-.51-.59zm1.45-.79a2.36 2.36 0 0 0-.86.79h.3a2.12 2.12 0 0 0 1.1-.33 2.32 2.32 0 0 0 .84-.77h-.3a2.12 2.12 0 0 0-1.08.31zm3.02-2.55c-.28 0-.41.18-.41.55h-.13c-.28 0-.43.18-.43.56h-.11c-.32 0-.48.19-.48.59s.16.54.48.54.46-.18.46-.54 0 0 .08 0c.31 0 .46-.2.46-.59s.05 0 .08 0c.35 0 .51-.19.51-.56s-.16-.55-.51-.55zm23.03-5.86a15.51 15.51 0 0 1-1.27 1.4 1.75 1.75 0 0 0 .81 1 2.94 2.94 0 0 0 1.13.19 2.13 2.13 0 0 0 1.38-.48 4.56 4.56 0 0 0 1.05-1.21 10.55 10.55 0 0 0 .76-1.45c.21-.51.38-1.17.49-1.17h-3.38c-.2.04-.51 1.11-.97 1.72z"/><path d="M127.83 2.16a126 126 0 1 0 126 126 126 126 0 0 0-126-126zm94.48 74.75a4.9 4.9 0 0 1-1.54.38 13.11 13.11 0 0 1-1.65.08h-1.08l-.94.06a42.83 42.83 0 0 0-5.16 1.24 15.83 15.83 0 0 0-3.61 1.57 9.26 9.26 0 0 0-2.47 2.16 13.59 13.59 0 0 0-1.74 2.91 36.21 36.21 0 0 0-1.48 3.86c-.48 1.46-1 3.12-1.64 5-.4 1.19-.79 2.32-1.19 3.4s-.8 2.14-1.25 3.16-.9 2-1.43 3.11-1.1 2.1-1.74 3.2a33.12 33.12 0 0 1-2.64 4c-.94 1.24-1.91 2.45-2.93 3.64l-3.07 3.53c-1.06 1.18-2.07 2.45-3.09 3.8a10.41 10.41 0 0 0-1.37 2.64c-.29.87-.61 1.73-.95 2.53a8.34 8.34 0 0 1-1.33 2.19 5.56 5.56 0 0 1-2.47 1.58 9.2 9.2 0 0 1-1.33.56l-2 .67-2 .62c-.65.2-1.09.33-1.35.38a2.87 2.87 0 0 1 .16 2 2 2 0 0 1-.85.92c-.38.21-.79.41-1.2.59a1.63 1.63 0 0 0-.89.95l-2.24 6.67a2.62 2.62 0 0 1-1 1.5 5.64 5.64 0 0 1-1.76.85 11.68 11.68 0 0 1-2 .19 15.72 15.72 0 0 1-1.84-.14h-.84c-.47 0-.85.17-1.11.05s-.42-.33-.42-.83a.55.55 0 0 1 .12-.37 2.26 2.26 0 0 1 .23-.29c.08-.1.16-.18.23-.28a.64.64 0 0 0 .1-.39.26.26 0 0 0 0-.11.77.77 0 0 1 0-.18 23.7 23.7 0 0 0-3.41 1.65c-1.1.64-2.22 1.33-3.33 2l-3.31 2.15c-1.1.72-2.2 1.36-3.33 2a3.72 3.72 0 0 1-.86.45 10.2 10.2 0 0 0-1.15.57 4.49 4.49 0 0 0-1 .78 1.45 1.45 0 0 0-.43 1v.33a1.34 1.34 0 0 1 0 .23c.56.49 1.15 1 1.77 1.61s1.25 1.15 1.93 1.71a23.09 23.09 0 0 0 2 1.59 14.16 14.16 0 0 0 2.09 1.24 8.48 8.48 0 0 0 1.79.67l1.92.53a19.6 19.6 0 0 1 1.87.64 7.37 7.37 0 0 1 1.66.9 8 8 0 0 1 1.33 1.4l1.11 1.49c.34.5.72 1 1.11 1.45a5 5 0 0 0 3.13 1.86 15.18 15.18 0 0 1 2 .64 6.22 6.22 0 0 1 1.77 1 2.1 2.1 0 0 1 .79 1.8 1.16 1.16 0 0 1-.06.28.84.84 0 0 0 0 .23l-5.58 1.14a3.52 3.52 0 0 0-1.08.38 2.39 2.39 0 0 1-1.15.26h-.28a1.63 1.63 0 0 0-.28 0c-.18-.12-.56-.33-1.12-.62l-1.72-1c-.61-.34-1.17-.69-1.68-1a6.52 6.52 0 0 1-1-.74s-.1-.08-.2-.21-.2-.32-.31-.5l-.35-.54c-.1-.18-.2-.33-.25-.44l-2.23-4.47c-.23-.08-.61-.23-1.13-.45s-1.14-.46-1.8-.74-1.36-.59-2.12-.92l-2.12-1c-.67-.3-1.26-.58-1.77-.82s-.87-.45-1.1-.59a24.65 24.65 0 0 1-2.76-1.56 16.6 16.6 0 0 1-2.6-2.12 13.25 13.25 0 0 1-2-2.67 8 8 0 0 1-1-3.1l-.56.23a3 3 0 0 0-.6.33 8.82 8.82 0 0 1-.85.64c-.46.33-1 .72-1.69 1.16s-1.37.92-2.11 1.4l-2.1 1.35-1.8 1.09c-.5.29-.81.47-.94.52q-3.34 2-5.93 3.5a23.12 23.12 0 0 0-4.51 3.39 17.21 17.21 0 0 0-3.59 4.4c-.87 1.7-.71 3.88-2.35 6.56v.63a4.17 4.17 0 0 0 0 .5v.43a9.83 9.83 0 0 0 1.14 4.41 7.67 7.67 0 0 0 2.11 2.54 8.09 8.09 0 0 0 2.6 1.4c.91.31 1.79.63 2.55 1a5.76 5.76 0 0 1 1.94.95 5 5 0 0 1 .8 2h-13.2s-.08-.25-.18-.4-.23-.11-.36-.19a4.77 4.77 0 0 0-.49-.15 3 3 0 0 1-.61-.32 2.91 2.91 0 0 1-1.25-1.53 8.37 8.37 0 0 1-.46-2.14 15 15 0 0 1 .2-2.31c0-.77.27-1.44.27-2v-1.45a6.65 6.65 0 0 1 .27-1.74c.21-.81.33-1.69.57-2.68s.47-2 .77-3.12.54-2.14.79-3.13.48-1.87.66-2.64.34-1.37.42-1.74a16.43 16.43 0 0 1 .65-2 13.26 13.26 0 0 1 1-1.87 14.32 14.32 0 0 0 4.47-2.55 28.2 28.2 0 0 0 3.22-3.25c1-1.14 1.94-2.27 2.87-3.41a15 15 0 0 1 3.41-3 7 7 0 0 1 1.43-.71l2-.79c.76-.29 1.52-.62 2.3-1a15.85 15.85 0 0 0 2.14-1.12 7.71 7.71 0 0 0 1.56-1.31 2.3 2.3 0 0 0 .61-1.55v-1.31a1.79 1.79 0 0 0-.62-1.2l-.76-.28c-.36-.15-.75-.33-1.18-.53l-1.17-.56c-.37-.16-.62-.28-.77-.33a9.86 9.86 0 0 1-2-1.2l-2.61-1.87c-.91-.66-1.75-1-2.53-1.55a3.16 3.16 0 0 0-1.73-.55h-7.81c-5.93 0-11.76-.1-17.52.09s-11.58.2-17.52.2c-4.35 0-8.61-.15-12.75-.36a105.77 105.77 0 0 1-12.28-1.36 84.39 84.39 0 0 1-11.91-2.9 69.66 69.66 0 0 1-11.69-5l-1.41-.71a14 14 0 0 1-1.58-1 5.55 5.55 0 0 1-1.28-1.28 2.54 2.54 0 0 1-.53-1.56 7 7 0 0 1 2.09.39c.79.28 1.59.58 2.38.92s1.51.66 2.17 1 1.15.51 1.5.63c1.43.56 3 1.12 4.62 1.64s3.32 1 5 1.43 3.4.74 5.08 1a34.2 34.2 0 0 0 4.81.34h25.1a8.82 8.82 0 0 0 1.22-.11l2.53-.35c1-.13 2.12-.3 3.33-.52s2.42-.4 3.6-.6 2.34-.39 3.4-.61 2-.41 2.65-.57l6.83-1.46c2.41-.46 4.85-1 7.29-1.59s4.85-1.3 7.2-2.09a47.52 47.52 0 0 0 6.56-2.78l3.8-1.76c1.23-.57 2.48-1.12 3.76-1.59s2.58-.94 3.91-1.32a32.44 32.44 0 0 1 4.18-.9 8.6 8.6 0 0 1 1-.12l1.78-.11 1.76-.15a4 4 0 0 0 1-.18 16.61 16.61 0 0 0 1.88-.33l3.32-.72c1.26-.28 2.61-.58 4-.91l4-.9c1.25-.28 2.35-.91 3.29-1.11s1.56-.71 1.87-.71h6.49c2.7 0 5.33.47 7.88.7s5.13.51 7.77.51a10 10 0 0 0 5-1.24 18.53 18.53 0 0 0 4.47-3.47 32.67 32.67 0 0 0 3.86-4.92c1.18-1.85 2.25-3.71 3.22-5.61a60.59 60.59 0 0 0 2.57-5.56c.73-1.81 1.3-3.38 1.76-4.76.43-1.18.79-2.33 1.12-3.43s.66-2.16 1-3.11a16.39 16.39 0 0 1 1.2-2.6 7.39 7.39 0 0 1 1.76-2 7.74 7.74 0 0 1 2.6-1.58 12.09 12.09 0 0 1 3.76-.78h3c.76 1.64 1.75.9 3 1.29a38.09 38.09 0 0 1 3.52 1.52 15.31 15.31 0 0 1 3 1.8 2.81 2.81 0 0 1 1.23 2.16 2.12 2.12 0 0 1-.44 1.41 3.21 3.21 0 0 1-1.2.85z"/></svg>