<svg xmlns="http://www.w3.org/2000/svg" viewBox="0 0 256 256" width="256" height="256"><path d="M128.17 2.16a126 126 0 1 0 126 126 126 126 0 0 0-126-126zm109 115c-1.4.08-2.76.08-4.07 0s-2.4-.08-3.23-.08q-4.53 0-9-.45c-3-.29-6-.62-9-1s-6-.66-9-1-6.05-.45-9.11-.45a133.2 133.2 0 0 0-16.13 1 73.19 73.19 0 0 0-15.68 3.67l-30.26 10.93a2.4 2.4 0 0 0-1.2 1.54 21.61 21.61 0 0 0-.81 2.71c-.23 1-.42 1.93-.62 2.83a7 7 0 0 1-.61 1.94 3 3 0 0 0 1.37 1.31 18.81 18.81 0 0 0 2.41 1.15l2.86 1.17a18.3 18.3 0 0 1 2.75 1.43 8.69 8.69 0 0 1 2.07 1.86 3.8 3.8 0 0 1 .8 2.43 1.63 1.63 0 0 1-.47 1.2 5.08 5.08 0 0 1-1.2.87 13.09 13.09 0 0 1-1.6.72 9.82 9.82 0 0 0-1.59.79 4.63 4.63 0 0 0-1.22 1 2.33 2.33 0 0 0-.48 1.49 3.73 3.73 0 0 0 .79 2.52 7.79 7.79 0 0 0 1.91 1.56c.74.46 1.53.89 2.35 1.32a7.51 7.51 0 0 1 2.14 1.7 17.24 17.24 0 0 1 2 3.42 24 24 0 0 1 1.27 3.65 35.17 35.17 0 0 1 .75 3.81c.18 1.3.11 2.62.26 3.92l1.3 1.29v7.1a3.78 3.78 0 0 1 .85 0c.28.05.7.1 1 .19s.68.14 1 .21a1.39 1.39 0 0 1 .56.23c0 .44.08.72.08.84a7.3 7.3 0 0 1-.1.95 8.16 8.16 0 0 1-.36 1.23 3.35 3.35 0 0 1-.62.93 1 1 0 0 1-.87.31h-5.15c-.2 0-.51-.52-1-.82s-1-.54-1.48-.85-1-.46-1.55-.77-.89-.85-1.15-.85h-6.1a4.74 4.74 0 0 1 .64-2.93 4.34 4.34 0 0 1 1.63-1.53 6.82 6.82 0 0 1 2.11-.65c.74-.1 1.44-.21 2.1-.35a4.83 4.83 0 0 0 1.61-.6 1.45 1.45 0 0 0 .64-1.35 2.26 2.26 0 0 0 0-.33v-.3c-.18-.41-.46-1-.84-1.76s-.79-1.56-1.26-2.4a27.74 27.74 0 0 0-1.51-2.45 9.76 9.76 0 0 0-1.55-1.79 8.63 8.63 0 0 0-1.28-.79c-.59-.29-1.22-.6-1.84-.93a19.5 19.5 0 0 1-1.74-1.05 2.18 2.18 0 0 1-1-1.09 22.41 22.41 0 0 1-.92-2.91 21.33 21.33 0 0 0-1.07-3.19 7.85 7.85 0 0 0-1.7-2.56 3.93 3.93 0 0 0-2.86-1 23.52 23.52 0 0 0-6 .79 26.72 26.72 0 0 0-5.67 2.22 26.14 26.14 0 0 0-4.94 3.44 22.11 22.11 0 0 0-3.9 4.53.39.39 0 0 1-.34.18h-.17a.14.14 0 0 1-.11-.15c-.07 0-.14-.14-.2-.33s-.1-.39-.17-.62-.11-.43-.16-.61a.72.72 0 0 0-.15-.33.59.59 0 0 0-.28-.06 1.41 1.41 0 0 0-1 .47 7.2 7.2 0 0 0-.87 1.15c-.28.45-.56.89-.82 1.32a3.53 3.53 0 0 1-.84 1 4.4 4.4 0 0 1-.64-1.63 14.88 14.88 0 0 1-.08-1.63 10.49 10.49 0 0 1 .39-2.88c.26-.92.56-1.84.89-2.77s.64-1.56.9-2.53a18.74 18.74 0 0 0 .4-2.75h-5c0-1.64.22-1.79.64-2.35a5.8 5.8 0 0 1 1.6-1.56 6.91 6.91 0 0 1 2.1-.9 9.86 9.86 0 0 1 2.1-.29 20 20 0 0 1 3 .19c1 .17 1.95.3 2.9.47s1.91.32 2.86.45a21.4 21.4 0 0 0 2.9.2h2.28a2.57 2.57 0 0 0-1.67-1.35 15 15 0 0 0-2.52-.44l-2.66-.2c-.89 0-1.6.15-2.17-.2l-3.86-2.17h-.28a13.23 13.23 0 0 0-3.14 0 12.91 12.91 0 0 1-3.12.17 7.41 7.41 0 0 1-3-.69 28.16 28.16 0 0 1-2.61-1.37c-.84-.48-1.76-.94-2.6-1.34a5.14 5.14 0 0 0-2.86-.61v6a12 12 0 0 0 1.58-.14 6.38 6.38 0 0 0 1-.33 5.83 5.83 0 0 0 .88-.51c.31-.2.37-.41.88-.64.11-.07.6-.13.6-.17v2.75l2-.68c0 .12.2.28.21.51s.13.38.13.5a5.49 5.49 0 0 1-1.31 3.74 20.94 20.94 0 0 1-3.23 2.88 22.63 22.63 0 0 0-4.55-1.25c-1.5-.25-3.1-.46-4.74-.66v-7.72c0 .08-1 .24-1.73.52a16.52 16.52 0 0 0-2 1 12.59 12.59 0 0 0-1.92 1.23c-.46.41-.93.81-.93 1.17V158a10.21 10.21 0 0 0 2.94-.28 12.2 12.2 0 0 0 1.82-.59 12.66 12.66 0 0 0 1.22-.6 2.66 2.66 0 0 1 1.21-.28h.15a1.2 1.2 0 0 0 .2 0c0 .12.13.35.28.72s.3.79.46 1.24.28.88.38 1.28a3.93 3.93 0 0 1 .18.95 5.11 5.11 0 0 1-.39 1.89 6.8 6.8 0 0 1-1.07 1.79 5.58 5.58 0 0 1-1.57 1.39 3.33 3.33 0 0 1-1.81.55 3.46 3.46 0 0 1-.58-.07l-.44-.05c-.74-.15-1.73-.31-3-.48a28.1 28.1 0 0 1-3.61-.7 12.28 12.28 0 0 1-3.22-1.23 2.5 2.5 0 0 1-1.34-2.08v-11.58c0-.12.38-.38.87-.82s1.17-1 1.87-1.6 1.52-1.35 2.36-2.15a25.16 25.16 0 0 0 2.35-2.52 18.67 18.67 0 0 0 1.8-2.63 5.38 5.38 0 0 0 .73-2.56 3.81 3.81 0 0 0-1.16-2.74 11.52 11.52 0 0 0-2.78-2 23.85 23.85 0 0 0-3.22-1.41c-1.08-.36-1.92-.66-2.51-.89l-1.3-9c-.15-.82-.35-1.71-.61-2.68a11.48 11.48 0 0 0-1.1-2.73 7 7 0 0 0-1.78-2.14 4 4 0 0 0-2.63-.87 12.07 12.07 0 0 0-3.6.48 14.87 14.87 0 0 0-3.19 1.47c-.32.23-.87.56-1.62 1s-1.58.92-2.48 1.49-1.9 1.12-2.94 1.74-2 1.19-2.94 1.73-1.78 1.22-2.52 1.64-1.29 1.11-1.62 1.11h-1c-.46 0-1-.2-1.71-.24a14.18 14.18 0 0 1-2-.36 3.33 3.33 0 0 1-1.36-.76c-.46-.31-.35-.8-.35-1.36v-1.85c0-.6-.21-.91.05-.92s.67 0 1.55 0a1.09 1.09 0 0 1 0-.43c.07-.24.09-.51.15-.8s.13-.6.18-.86a.82.82 0 0 0 0-.49 2.4 2.4 0 0 0-.79-.82c-.3-.17-.6-.33-.88-.5a2.39 2.39 0 0 1-.69-.65 2 2 0 0 1-.28-1.24 3 3 0 0 1 .25-1.16 4.61 4.61 0 0 1 .67-1.15c.28-.36.25-.64.61-.87a3 3 0 0 1 .8-.33v.77c0 .49.42 1 .56 1.46a1.17 1.17 0 0 0 1.2.73 1.59 1.59 0 0 0 1.08-.48 4.94 4.94 0 0 0 1-1.12 10 10 0 0 0 .63-1.62c.15-.44.25.27.25-1.37H22.66a1.88 1.88 0 0 1-.85-.47c-.37-.26-.71-.39-1-.67a5.85 5.85 0 0 1-.9-.79 1.43 1.43 0 0 1-.4-1 4.45 4.45 0 0 1 1.07-3.15 7.4 7.4 0 0 1 2.58-1.78 16.4 16.4 0 0 1 3.16-1 20.42 20.42 0 0 0 2.82-.82c.41-.15 1.15-.46 2.19-.92s2.17-1 3.33-1.54 2.29-1.06 3.31-1.57a9.87 9.87 0 0 1 2.17-1.06h13.45a7.29 7.29 0 0 1 3.83 1 13.2 13.2 0 0 1 3.09 2.4A26.32 26.32 0 0 1 63 99.32c.78 1.17 1.53 2.26 2.27 3.27a17.47 17.47 0 0 0 2.25 2.53 3.69 3.69 0 0 0 2.47 1 .81.81 0 0 0 .77-.4.89.89 0 0 1 .84-.39 3.91 3.91 0 0 1 1.5.31c.49.2 1 .44 1.51.71s1 .49 1.51.69a3.92 3.92 0 0 0 1.54.31c1.38 0 2.75-.07 4.08-.2s2.7-.28 4.06-.44 2.73-.33 4.08-.48A36.33 36.33 0 0 1 94 106a62.18 62.18 0 0 1 7.23.4 38.54 38.54 0 0 1 7.17 1.56c1.64.56 3.3 1.21 5 2s3.36 1.46 5.06 2.15a46.24 46.24 0 0 0 5.17 1.75 21.19 21.19 0 0 0 5.39.69h1.25c.63 0 1.06-.07 1.32-.07q6.39-1.38 12.75-2.68c4.24-.85 8.48-1.63 12.71-2.27s8.51-1.15 12.8-1.54 8.63-.56 13-.56h3.3c1.79 0 3.62 0 5.46.11a39.85 39.85 0 0 1 5 .93l36.08 7.18h11.6c-.79 0-1.82 1-3.11 1.35a18.43 18.43 0 0 1-4.06.15z"/></svg>